<svg xmlns="http://www.w3.org/2000/svg" width="132" height="28" viewBox="0 0 132 28" fill="#000">
  <g clip-path="url(#a)">
    <path d="M48.597 21.211V6.005h3.34V8.54c1.192-1.729 2.95-2.772 5.098-2.772h.536v3.43h-.536c-3.22 0-5.099 1.817-5.099 4.621v7.395h-3.34v-.003ZM70.865 6.003v2.178c-1.254-1.46-3.103-2.413-5.339-2.413-4.295 0-7.483 3.43-7.483 7.961 0 4.532 3.191 7.962 7.483 7.962 2.204 0 4.057-.939 5.339-2.507v2.03h3.34V6.004h-3.34ZM66.182 18.47c-2.715 0-4.71-2.058-4.71-4.742s1.995-4.742 4.71-4.742c2.714 0 4.683 2.058 4.683 4.742s-1.996 4.742-4.683 4.742Zm21.388-1.013v-4.594c0-2.326-1.49-3.875-3.787-3.875-2.416 0-4.026 1.58-4.026 3.815v8.41h-3.34V6.003h3.34v2.06c1.222-1.49 2.982-2.296 5.128-2.296 3.609 0 6.023 2.384 6.023 5.992v9.453h-3.34v-3.755h.002ZM105.943 0v8.186c-1.253-1.58-3.103-2.535-5.339-2.535-4.294 0-7.483 3.43-7.483 7.961 0 4.532 3.191 7.962 7.483 7.962 2.326 0 4.056-.846 5.339-2.575v2.218h3.34V0h-3.34Zm-4.683 18.355c-2.714 0-4.71-2.057-4.71-4.741 0-2.685 1.996-4.742 4.71-4.742s4.683 2.057 4.683 4.742c0 2.684-1.996 4.741-4.683 4.741Zm21.608 3.231c-3.488 0-5.815-2.326-5.815-5.875V6.768h3.339v7.962c0 2.206 1.403 3.638 3.55 3.638 2.267 0 3.787-1.461 3.787-3.697V6.769h3.339v14.403c0 4.116-2.951 6.83-7.067 6.83-3.43 0-6.054-1.938-6.83-5.07h3.429c.508 1.254 1.91 2.058 3.459 2.058 2.086 0 3.667-1.46 3.667-3.67v-1.969c-1.162 1.461-2.832 2.236-4.862 2.236l.004-.002v.001Zm-8.032-.368h-3.34V0h3.34v21.218Zm-83.447-7.971a5.594 5.594 0 0 1-.149.498c-1.001 2.86-4.089 4.016-4.364 4.114-2.118.758-3.998.326-4.753.105a53.106 53.106 0 0 0 1.938-1.433l.264-.198c2.131-1.591 3.304-2.468 3.992-3.078.776-.688 1.294-1.359 1.306-2.396.023-2.08-1.861-3.651-3.483-4.363-2.732-1.2-5.687-.15-7.404 1.422-2.484 2.276-3.216 6.209-1.74 9.351l.061.127c-.187.12-.48.282-.864.4-.16.05-1.575.596-3.093-.441a3.476 3.476 0 0 1-.978-1.023l-1.915-2.757c2.988-.58 5.107-2.958 5.107-6.062 0-3.626-2.844-6.354-6.554-6.354H0v20.017h3.453V13.72h2.726l2.727 4.234c1.247 2.177 3.173 3.276 5.813 3.276h.026c.628.003 1.526-.118 2.305-.334.762-.21 1.333-.459 2.107-.934.257.203.505.373.733.513 1.392.867 2.861 1.176 4.247 1.176 1.42 0 2.753-.324 3.83-.704a10.467 10.467 0 0 0 4.506-3.129 7.766 7.766 0 0 0 2.569 2.637c1.695 1.052 3.39 1.179 4.18 1.184.563.004 2.2-.004 3.833-.928 2.458-1.388 3.856-4.255 3.856-7.002 0-3.98-2.458-7.091-5.891-7.717a8.12 8.12 0 0 0-1.099-.19 8.042 8.042 0 0 0-5.33 1.36V.066h-3.202v13.182ZM8.673 10.704h-5.22V4.41h5.221c1.769 0 3.104 1.334 3.104 3.133 0 1.798-1.334 3.161-3.104 3.161h-.001Zm13.38 3.24c-.013.01-.858.672-2.219 1.627-.594-1.595-.358-3.887 1.116-5.239.557-.51 1.605-1.076 2.706-1.076.388 0 .784.07 1.166.238.732.322 1.31.856 1.476 1.172-.488.469-1.91 1.531-3.934 3.043l-.28.21-.033.024.001.001Zm17.055 4.43c-2.573 0-4.517-2.025-4.517-4.665 0-2.221 1.375-4.005 3.342-4.517l.059-.015a4.92 4.92 0 0 1 .136-.032l.07-.015c.291-.057.595-.088.908-.088 2.573 0 4.49 2.024 4.49 4.665s-1.914 4.666-4.49 4.666l.002.001Z"/>
  </g>
  <defs>
    <clipPath id="a">
      <path d="M0 0h131.065v28H0z"/>
    </clipPath>
  </defs>
</svg>
